<?xml version="1.0" encoding="utf-8"?>
<!-- Generator: Adobe Illustrator 16.0.4, SVG Export Plug-In . SVG Version: 6.00 Build 0)  -->
<!DOCTYPE svg PUBLIC "-//W3C//DTD SVG 1.1//EN" "http://www.w3.org/Graphics/SVG/1.1/DTD/svg11.dtd">
<svg version="1.1" id="Layer_1" xmlns="http://www.w3.org/2000/svg" xmlns:xlink="http://www.w3.org/1999/xlink" x="0px" y="0px"
	 viewBox="0 0 48 48" enable-background="new 0 0 48 48" xml:space="preserve">
<path fill-rule="evenodd" clip-rule="evenodd" fill="#547DBF" d="M4,0h40c2.209,0,4,1.791,4,4v40c0,2.209-1.791,4-4,4H4
	c-2.209,0-4-1.791-4-4V4C0,1.792,1.791,0,4,0z"/>
<path fill="#FFFFFF" d="M25.442,5.875c-0.43,0-1.436,0.023-2.636,0.241c-2.837,0.513-6.759,2.386-7.869,6.287
	c-1.716,6.033,2.703,8.43,2.703,8.43s1.549,0.909,2.188,1.088c1.922,0.536,3.966,0.286,3.966,0.286s-0.815,2.699,0.819,4.604
	c0.39,0.456,0.106,0.473,0.106,0.473s-7.142-0.186-10.522,3.404c-3.381,3.588-1.548,6.892-1.548,6.892s1.771,4.319,9.417,4.537
	c7.679,0.22,12.429-4.329,12.843-7.762c0.209-1.726-0.026-3.342-0.891-4.756c-0.842-1.374-2.285-2.559-3.696-3.712
	c-0.876-0.719-1.486-1.086-1.878-1.498c-0.372-0.39-0.434-0.892-0.421-1.268c0.019-0.526,0.294-1.17,1.216-2.238
	c1.683-1.948,2.109-1.706,3.124-3.164c0.306-0.437,0.528-1.074,0.841-2.024c0.189-0.572,0.158-1.165,0.158-1.716
	c0-1.192-0.287-2.329-0.764-3.286c-0.885-1.781-2.404-2.936-2.434-3.023h2.664l3.018-1.767l-10.18-0.027c0,0-0.082,0-0.225,0V5.875z
	 M23.255,7.53c1.554,0.012,3.886,0.814,5.283,5.008c2.398,7.196-2.625,8.295-2.625,8.295S20.157,21.72,19.1,15.32
	c-1.078-6.519,1.547-6.872,2.574-7.515C21.674,7.805,22.323,7.524,23.255,7.53L23.255,7.53z M26.436,28.729
	c0,0,4.583,2.811,5.014,4.868c0.483,2.308,0.516,3.987-2.983,5.827c-1.033,0.544-2.847,0.607-3.988,0.612
	c-2.806,0.011-4.926-1.068-5.973-1.61c-0.545-0.28-3.567-3.676-1.329-6.713c0.562-0.765,1.187-1.103,1.767-1.492
	c1.233-0.828,2.444-1.214,4.728-1.413C24.43,28.742,25.44,28.798,26.436,28.729L26.436,28.729z"/>
</svg>
